# xmcd CD database file
#
# Track frame offsets:
#	150
#	19925
#	40772
#	62907
#	78590
#	95667
#	114305
#	132897
#	152190
#	170842
#	190062
#	210495
#
# Disc length: 3082 seconds
#
# Revision: 1
# Processed by: cddbd v1.5.1PL0 Copyright (c) Steve Scherf et al.
# Submitted via: CDex 1.51
#
DISCID=a20c080c
DTITLE=Various Artist - Voice of Paradise 〜Muses of Hawaiian Healing〜
DYEAR=2003
DGENRE=Easy Listening
TTITLE0=Forever Yours
TTITLE1=When I Close My Eyes
TTITLE2=Stronger and Stronger
TTITLE3=Living in Paradise
TTITLE4=You and Me
TTITLE5=Nothing
TTITLE6=I Do
TTITLE7=No Resistance
TTITLE8=Will You Be There
TTITLE9=For Eternity
TTITLE10=Saving Forever
TTITLE11=Along for the Ride
EXTD=YEAR: 2003
EXTT0=
EXTT1=
EXTT2=
EXTT3=
EXTT4=
EXTT5=
EXTT6=
EXTT7=
EXTT8=
EXTT9=
EXTT10=
EXTT11=
PLAYORDER=
